# xmcd
# 
# Track frame offsets:
#     150
#     31841
#     59397
#     86357
#     116850
#     138611
#     164152
#     175527
#     196673
#     220802
# 
# Disc length: 3411
# 
# Revision: 0
# Processed by: cddbd v1.5.2PL0 Copyright (c) Steve Scherf et al.
# Submitted via: fre:ac v1.0.31
# 
DISCID=880d510a
DTITLE=Marcus Miller - Laid Black
DYEAR=2018
DGENRE=
TTITLE0=Trip Trap
TTITLE1=Que Sera Sera
TTITLE2=7-T's
TTITLE3=Subliimity Bunny's Dream
TTITLE4=Untamed
TTITLE5=No Limit
TTITLE6=Convergence
TTITLE7=Someony To Love
TTITLE8=Keep 'Em Runnin
TTITLE9=Preacher's Kid
EXTD=
EXTT0=
EXTT1=
EXTT2=
EXTT3=
EXTT4=
EXTT5=
EXTT6=
EXTT7=
EXTT8=
EXTT9=
PLAYORDER=
